<svg xmlns="http://www.w3.org/2000/svg" width="682.667" height="682.667" version="1.0" viewBox="0 0 512 512"><path d="M267.3 65.1c-4.4 1.3-9 6.2-10.3 11-2.2 7.9 2.9 16.7 10.8 18.9 2.3.6 25.9 1 64.7 1h61L285.8 203.7C217.6 272 177.9 312.4 177.6 314c-1.9 8.2-1.1 11.8 3.8 16.6 4.8 4.9 8.1 5.6 16.6 3.8 1.6-.3 40.7-38.7 110.3-108.2L416 118.5V179c0 33.4.5 62.3 1 64.5 1.2 5.4 7.3 11 12.9 12 6.2 1 12.9-2.5 15.9-8.5l2.2-4.4V77.4l-2.2-4.4c-1.7-3.3-3.5-5.1-6.8-6.8l-4.4-2.2-82.1.1c-46.7 0-83.4.5-85.2 1"/><path d="M120.4 129.1c-29.3 3.5-52.2 27.2-55.4 57.2-1.3 12.1-1.3 191.3 0 203.4 3.2 30.7 26 53.8 56.7 57.3 11.8 1.3 192.8 1.3 204.6 0 26.7-3.1 48.1-21.7 55.4-48.1 1.6-5.8 1.8-11.9 1.8-60.4 0-52.7-.1-54.1-2.1-57.5-3-5.1-7.8-8-13.4-8s-10.4 2.9-13.4 8c-2 3.4-2.1 5.3-2.6 58-.5 54.5-.5 54.5-2.8 59.2-3 6-9 12-15 15l-4.7 2.3h-211l-4.7-2.3c-6-3-12-9-15-15l-2.3-4.7-.3-104.2C96 186 96 185.1 98 179.6c2.6-6.7 9.2-13.9 15.8-16.9 4.6-2.2 5.8-2.2 59.2-2.7 52.7-.5 54.6-.6 58-2.6 10.7-6.3 10.7-20.5 0-26.8-3.4-2-5-2.1-53.5-2.2-27.5-.1-53.2.2-57.1.7"/></svg>